<svg xmlns="http://www.w3.org/2000/svg" fill="none" viewBox="0 0 1920 1280" height="1280" width="1920">
<g clip-path="url(#clip0_4023_1258)">
<path stroke-miterlimit="10" stroke-width="2.15" stroke="black" fill="#1C4921" d="M820.28 365.184C820.27 365.244 820.26 365.284 820.26 365.284C820.26 365.284 820.26 365.244 820.28 365.184Z"></path>
<path fill="url(#paint0_linear_4023_1258)" d="M808.53 86.8921C806.27 84.8721 804.15 83.1921 802.54 82.3021H813C813 82.3021 817.82 8.95214 782.42 -38.7279C771.82 -53.0079 758.31 -42.9479 752.77 -37.6979C750.84 -35.8679 748.89 -34.0779 746.85 -32.3679C732.3 -20.1779 676.01 33.3021 685.84 123.842L704.35 118.102L684.7 158.992C684.7 158.992 691.48 234.102 731.72 286.422C731.72 286.422 739.77 288.032 745.4 281.592L743.79 294.472C743.79 294.472 763.11 326.662 792.88 342.762C820.58 357.732 820.42 364.352 820.27 365.202C821.11 361.652 845.82 257.052 837.95 232.512C831.24 211.592 825.07 211.592 825.07 211.592H839.5C839.5 211.592 838.07 161.002 831.01 126.382C827.91 111.172 820.09 97.2621 808.52 86.9221L808.53 86.8921ZM816.94 230.142C818.62 231.902 820.32 233.702 821.43 235.882C822.53 238.052 822.96 240.702 822 242.932C817.52 253.332 802.08 240.652 798.58 235.802C794.47 230.102 792.12 223.342 789.83 216.692C788.83 213.782 788.13 209.872 790.72 208.202C792.07 207.332 793.88 207.502 795.31 208.222C796.74 208.942 797.88 210.122 798.98 211.282C804.97 217.572 810.95 223.852 816.94 230.142Z"></path>
<mask height="413" width="156" y="-47" x="684" maskUnits="userSpaceOnUse" style="mask-type:luminance" id="mask0_4023_1258">
<path fill="white" d="M808.53 86.8921C806.27 84.8721 804.15 83.1921 802.54 82.3021H813C813 82.3021 817.82 8.95214 782.42 -38.7279C771.82 -53.0079 758.31 -42.9479 752.77 -37.6979C750.84 -35.8679 748.89 -34.0779 746.85 -32.3679C732.3 -20.1779 676.01 33.3021 685.84 123.842L704.35 118.102L684.7 158.992C684.7 158.992 691.48 234.102 731.72 286.422C731.72 286.422 739.77 288.032 745.4 281.592L743.79 294.472C743.79 294.472 763.11 326.662 792.88 342.762C820.58 357.732 820.42 364.352 820.27 365.202C821.11 361.652 845.82 257.052 837.95 232.512C831.24 211.592 825.07 211.592 825.07 211.592H839.5C839.5 211.592 838.07 161.002 831.01 126.382C827.91 111.172 820.09 97.2621 808.52 86.9221L808.53 86.8921ZM816.94 230.142C818.62 231.902 820.32 233.702 821.43 235.882C822.53 238.052 822.96 240.702 822 242.932C817.52 253.332 802.08 240.652 798.58 235.802C794.47 230.102 792.12 223.342 789.83 216.692C788.83 213.782 788.13 209.872 790.72 208.202C792.07 207.332 793.88 207.502 795.31 208.222C796.74 208.942 797.88 210.122 798.98 211.282C804.97 217.572 810.95 223.852 816.94 230.142Z"></path>
</mask>
<g mask="url(#mask0_4023_1258)">
<path fill="#2E6633" d="M723.1 -17.707C706.12 21.103 695.5 62.683 691.81 104.883C699.04 105.643 706.27 106.403 713.5 107.163C693.12 161.093 701.7 225.033 735.58 271.673C740.99 268.243 745.76 264.253 751.17 260.823C752.7 299.343 779.86 335.563 816.4 347.843C837.57 304.673 836.89 249.013 818.76 204.483L830.42 204.663C827.25 165.203 824.07 125.753 820.9 86.293C831.96 95.263 841.39 106.233 848.59 118.513C869.06 153.393 870.45 195.853 871.29 236.283C871.82 261.553 872.34 286.953 868.87 311.993C866.64 328.043 862.69 344.103 854.64 358.173C846.59 372.243 834.09 384.233 818.68 389.233C803.76 394.073 787.22 392.023 772.7 386.093C758.18 380.163 745.44 370.593 733.65 360.253C687.23 319.583 652.94 265.233 636.24 205.813C625.58 167.883 622.07 127.063 632.81 89.143C643.55 51.233 669.93 16.663 706.5 1.97297"></path>
</g>
<path stroke-miterlimit="10" stroke-width="2.15" stroke="black" d="M808.53 86.8921C806.27 84.8721 804.15 83.1921 802.54 82.3021H813C813 82.3021 817.82 8.95214 782.42 -38.7279C771.82 -53.0079 758.31 -42.9479 752.77 -37.6979C750.84 -35.8679 748.89 -34.0779 746.85 -32.3679C732.3 -20.1779 676.01 33.3021 685.84 123.842L704.35 118.102L684.7 158.992C684.7 158.992 691.48 234.102 731.72 286.422C731.72 286.422 739.77 288.032 745.4 281.592L743.79 294.472C743.79 294.472 763.11 326.662 792.88 342.762C820.58 357.732 820.42 364.352 820.27 365.202C821.11 361.652 845.82 257.052 837.95 232.512C831.24 211.592 825.07 211.592 825.07 211.592H839.5C839.5 211.592 838.07 161.002 831.01 126.382C827.91 111.172 820.09 97.2621 808.52 86.9221L808.53 86.8921ZM816.94 230.142C818.62 231.902 820.32 233.702 821.43 235.882C822.53 238.052 822.96 240.702 822 242.932C817.52 253.332 802.08 240.652 798.58 235.802C794.47 230.102 792.12 223.342 789.83 216.692C788.83 213.782 788.13 209.872 790.72 208.202C792.07 207.332 793.88 207.502 795.31 208.222C796.74 208.942 797.88 210.122 798.98 211.282C804.97 217.572 810.95 223.852 816.94 230.142Z"></path>
<path fill="#0E280E" d="M767.65 -45.918C762.06 17.502 761.77 82.812 768.73 146.072C774.38 201.402 785.82 257.422 800.28 311.162L806.8 334.322L799.73 311.322C765.49 196.062 753.46 73.622 767.65 -45.908V-45.918Z"></path>
<path fill="#0E280E" d="M771.161 170.121C749.861 193.671 738.791 225.721 740.981 257.391C735.651 225.831 747.481 191.651 771.161 170.121Z"></path>
<path fill="#0E280E" d="M764.2 114.102C737.19 135.392 719.06 167.102 714.4 201.172C715.98 166.582 735.19 133.002 764.2 114.102Z"></path>
<path fill="url(#paint1_linear_4023_1258)" d="M1106.22 201.172C1106.22 201.172 1074.56 194.932 1039.69 121.422C1004.82 47.9218 994.62 62.9418 977.45 63.4718L980.67 52.7418H969.94C969.94 52.7418 934.53 -16.4682 876.05 -49.1982C817.57 -81.9282 771.16 -68.5182 771.16 -68.5182C771.16 -68.5182 789.92 4.9818 822.53 45.7618L826.7 58.1018C826.7 58.1018 855.14 96.7318 869.09 99.4118L886.8 89.2218C886.8 89.2218 877.68 101.932 884.12 114.082C890.56 126.242 933.48 173.992 952.26 179.352C971.04 184.722 982.84 175.062 1017.72 189.012C1052.59 202.962 1084.25 215.442 1106.25 201.152L1106.22 201.172Z"></path>
<mask height="280" width="336" y="-72" x="771" maskUnits="userSpaceOnUse" style="mask-type:luminance" id="mask1_4023_1258">
<path fill="white" d="M1106.22 201.172C1106.22 201.172 1074.56 194.932 1039.69 121.422C1004.82 47.9218 994.62 62.9418 977.45 63.4718L980.67 52.7418H969.94C969.94 52.7418 934.53 -16.4682 876.05 -49.1982C817.57 -81.9282 771.16 -68.5182 771.16 -68.5182C771.16 -68.5182 789.92 4.9818 822.53 45.7618L826.7 58.1018C826.7 58.1018 855.14 96.7318 869.09 99.4118L886.8 89.2218C886.8 89.2218 877.68 101.932 884.12 114.082C890.56 126.242 933.48 173.992 952.26 179.352C971.04 184.722 982.84 175.062 1017.72 189.012C1052.59 202.962 1084.25 215.442 1106.25 201.152L1106.22 201.172Z"></path>
</mask>
<g mask="url(#mask1_4023_1258)">
<path fill="#579B30" d="M1123.43 211.012C1120.26 225.912 1109.12 238.302 1095.77 245.642C1082.42 252.992 1067.02 255.802 1051.81 256.732C997.67 260.022 943.7 240.222 899.84 208.312C855.98 176.402 821.54 133.012 793.6 86.5316C768.88 45.4016 748.71 1.08159 738.79 -45.8784C736.63 -56.1184 735.21 -67.7284 741.3 -76.2484C746.05 -82.9084 754.54 -86.0884 762.72 -86.3784C770.9 -86.6684 778.32 -82.9784 786.21 -80.8084C785.98 -60.1584 794.53 -40.4284 804.64 -22.4184C814.75 -4.41841 826.65 12.7316 834.17 31.9616C837.89 41.4616 840.52 51.4216 845.16 60.5116C849.8 69.6016 856.89 78.0116 866.52 81.3916C878.68 85.6716 891.99 81.2116 904.1 76.7716C896.77 92.1316 899.96 110.862 908.2 125.762C916.43 140.662 929.93 153.972 942.39 165.572C957.61 153.862 979.23 154.152 997.42 160.302C1015.61 166.452 1031.59 177.622 1048.53 186.652C1065.47 195.682 1084.65 202.732 1103.58 199.552C1112.85 197.992 1120.33 202.152 1123.44 211.022L1123.43 211.012Z"></path>
</g>
<path stroke-miterlimit="10" stroke-width="2.15" stroke="black" d="M1106.22 201.172C1106.22 201.172 1074.56 194.932 1039.69 121.422C1004.82 47.9218 994.62 62.9418 977.45 63.4718L980.67 52.7418H969.94C969.94 52.7418 934.53 -16.4682 876.05 -49.1982C817.57 -81.9282 771.16 -68.5182 771.16 -68.5182C771.16 -68.5182 789.92 4.9818 822.53 45.7618L826.7 58.1018C826.7 58.1018 855.14 96.7318 869.09 99.4118L886.8 89.2218C886.8 89.2218 877.68 101.932 884.12 114.082C890.56 126.242 933.48 173.992 952.26 179.352C971.04 184.722 982.84 175.062 1017.72 189.012C1052.59 202.962 1084.25 215.442 1106.25 201.152L1106.22 201.172Z"></path>
<path fill="#2A4C0F" d="M1011.33 185.591C984.481 174.711 967.111 149.941 951.321 126.881C943.261 115.241 935.251 103.531 925.591 93.2706C915.951 82.9806 904.831 74.1806 894.041 64.9706C849.551 28.9406 827.221 -27.1994 782.461 -62.8594C816.951 -37.2794 838.211 1.15062 865.511 33.4506C883.291 55.7906 907.391 71.3606 927.021 91.9406C955.651 122.661 970.951 167.511 1011.33 185.601V185.591Z"></path>
<path fill="#2A4C0F" d="M937.189 106.121C967.519 107.691 997.419 119.791 1020.29 139.771C995.639 122.251 967.089 110.681 937.189 106.121Z"></path>
<path fill="#2A4C0F" d="M852.221 17.3633C855.361 36.3833 862.621 54.4333 873.521 70.3433C860.171 56.2533 852.351 36.7633 852.221 17.3633Z"></path>
<path fill="#2A4C0F" d="M845.57 8.27344C887.01 15.3834 926.28 35.8534 955.83 65.7734C924.29 38.1534 886.28 18.3134 845.57 8.27344Z"></path>
<path stroke-miterlimit="10" stroke-width="1.44" stroke="black" fill="#428222" d="M750.29 -235.109L744.75 -233.599C765.43 -157.759 766.96 -85.1794 749.17 -23.7094C739.55 9.56062 723.85 41.6006 708.68 72.5806C687.88 115.051 666.37 158.961 660.24 206.611L665.94 207.341C671.95 160.631 693.25 117.151 713.84 75.1006C729.12 43.9006 744.93 11.6306 754.69 -22.1194C772.76 -84.5994 771.24 -158.249 750.29 -235.109Z"></path>
<path stroke-miterlimit="10" stroke-width="1.33" stroke="black" fill="url(#paint2_linear_4023_1258)" d="M699.94 283.493C699.94 283.493 693.85 268.563 686.51 254.573C680.07 242.293 662.88 220.863 658.77 221.143C654.66 221.423 652.32 224.873 653.96 231.393C655.6 237.913 665.37 249.243 668.43 257.113C674.88 273.693 699.95 283.493 699.95 283.493H699.94Z"></path>
<path stroke-miterlimit="10" stroke-width="1.33" stroke="black" fill="url(#paint3_linear_4023_1258)" d="M640.989 220.133C640.989 220.133 613.769 243.543 607.779 249.803C600.679 257.233 603.729 277.323 603.729 277.323C603.729 277.323 623.259 264.763 628.589 259.553C633.909 254.343 646.599 225.863 647.259 220.993C647.909 216.133 640.989 220.123 640.989 220.123V220.133Z"></path>
<path stroke-miterlimit="10" stroke-width="1.33" stroke="black" fill="url(#paint4_linear_4023_1258)" d="M664.909 219.033C664.909 219.033 644.609 249.203 639.999 264.353C634.419 282.683 654.929 301.753 654.929 301.753C654.929 301.753 659.829 283.723 663.109 271.153C666.389 258.583 664.919 219.023 664.919 219.023L664.909 219.033Z"></path>
<path stroke-miterlimit="10" stroke-width="1.33" stroke="black" fill="url(#paint5_linear_4023_1258)" d="M628.4 211.913C628.4 211.913 611.72 212.993 598.67 206.973C583.06 199.773 566.49 204.023 566.49 204.023C566.49 204.023 593.16 237.203 606.28 232.893C619.4 228.583 632.34 226.653 632.34 226.653C632.34 226.653 640.28 218.903 640.63 215.293C640.98 211.683 628.41 211.913 628.41 211.913H628.4Z"></path>
<path fill="#5B116D" d="M630.971 215.694C625.491 220.074 618.111 222.544 611.061 221.484C602.151 219.984 593.561 217.024 585.311 213.414C589.141 214.544 592.981 215.654 596.811 216.734C609.901 220.304 618.391 223.174 630.971 215.694Z"></path>
<path fill="#5B116D" d="M633.82 212.914C629.33 217.234 622.55 218.804 616.46 217.804C610.41 216.854 604.38 215.244 598.92 212.414C601.85 213.294 604.81 214.014 607.76 214.714C616.79 216.854 625.62 218.694 633.82 212.914Z"></path>
<path fill="#5B116D" d="M627.801 217.633C625.531 219.923 622.491 221.303 619.491 222.423C610.421 225.963 600.091 224.993 591.201 221.363C597.351 222.783 603.681 223.683 609.961 223.243C616.051 222.453 622.541 220.973 627.801 217.633Z"></path>
<g opacity="0.56">
<path fill="#5B116D" d="M636.15 222.562C632.69 237.222 624.5 250.303 614.57 261.473C618.16 255.933 623.29 248.243 626.66 242.693C630.46 236.313 633.46 229.492 636.15 222.562Z"></path>
</g>
<g opacity="0.56">
<path fill="#5B116D" d="M657.821 224.254C656.691 233.484 654.991 242.694 652.411 251.624C650.031 260.514 649.931 269.984 651.541 279.034C648.801 270.094 648.641 260.304 651.121 251.274C651.751 249.004 652.421 246.834 653.001 244.574C654.701 238.044 656.341 230.804 657.821 224.254Z"></path>
</g>
<g opacity="0.56">
<path fill="#5B116D" d="M659 227.852C664.2 235.562 668.97 243.642 672.88 252.092C676.92 260.372 683.07 267.582 690.21 273.382C682.75 268.742 676.6 261.992 672.44 254.262C668.3 245.272 663.71 236.562 659 227.852Z"></path>
</g>
<g opacity="0.56">
<path fill="#5B116D" d="M663.33 227.094C669.21 232.544 674.78 239.034 676.52 247.124C676.96 249.084 676.57 251.194 676.85 253.144C677.32 257.014 679.66 260.374 682.51 262.974C683.97 264.304 685.57 265.504 687.31 266.504C683.56 265.084 680.06 262.614 677.73 259.154C676.56 257.434 675.79 255.414 675.5 253.324C675.21 251.294 675.65 249.354 675.24 247.344C673.7 239.524 668.49 232.974 663.32 227.094H663.33Z"></path>
</g>
<g opacity="0.56">
<path fill="#5B116D" d="M661.01 218.102C659.88 227.332 658.18 236.542 655.6 245.472C653.22 254.362 653.12 263.832 654.73 272.882C651.99 263.942 651.83 254.152 654.31 245.122C654.94 242.852 655.61 240.682 656.19 238.422C657.89 231.892 659.53 224.652 661.01 218.102Z"></path>
</g>
<path stroke-miterlimit="10" stroke-width="1.33" stroke="black" fill="url(#paint6_linear_4023_1258)" d="M666.67 223.602C666.67 223.602 677.82 255.782 687.24 262.262C701.73 272.232 722.11 260.672 722.11 260.672C722.11 260.672 708.1 259.012 694.55 244.052C689.22 238.172 666.67 223.602 666.67 223.602Z"></path>
<path stroke-miterlimit="10" stroke-width="1.33" stroke="black" fill="url(#paint7_linear_4023_1258)" d="M660.121 211.272C660.121 211.272 640.991 220.132 626.771 250.932C620.121 265.332 618.541 287.032 618.541 287.032C618.541 287.032 642.391 273.772 648.081 262.072C653.771 250.372 660.121 211.262 660.121 211.262V211.272Z"></path>
<path stroke-miterlimit="10" stroke-width="1.33" stroke="black" fill="url(#paint8_linear_4023_1258)" d="M650.55 206.203C650.55 206.203 616.56 220.383 605.11 231.433C593.66 242.483 574.15 254.893 574.15 254.893C574.15 254.893 606.19 265.753 620.96 249.423C629.71 239.743 650.56 206.203 650.56 206.203H650.55Z"></path>
<path stroke-miterlimit="10" stroke-width="1.33" stroke="black" fill="url(#paint9_linear_4023_1258)" d="M662.28 215.094C662.28 215.094 656.4 244.494 655.83 260.294C655.25 276.094 687.36 297.354 687.36 297.354C687.36 297.354 679.18 275.344 679.86 262.394C680.55 249.434 662.29 215.104 662.29 215.104L662.28 215.094Z"></path>
<path fill="#5B116D" d="M654.281 219.812C648.331 234.613 641.091 248.882 632.641 262.402C638.581 247.602 645.841 233.342 654.281 219.812Z"></path>
<path fill="#5B116D" d="M654.281 219.812C647.851 229.562 640.681 238.752 632.781 247.342C639.201 237.592 646.381 228.413 654.281 219.812Z"></path>
<path fill="#5B116D" d="M654.281 219.812C652.521 230.102 649.871 240.163 646.301 249.973C648.051 239.683 650.721 229.623 654.281 219.812Z"></path>
<path fill="#5B116D" d="M662.951 220.961C662.891 221.411 663.061 221.881 663.131 222.331C663.301 223.181 663.871 225.551 664.081 226.421C667.021 238.511 670.291 252.491 673.331 264.541C669.111 254.111 666.491 243.111 664.361 232.091C663.851 229.431 663.391 226.461 663.071 223.761C662.991 222.831 662.791 221.881 662.941 220.961H662.951Z"></path>
<path fill="#5B116D" d="M662.041 221.773C661.881 233.423 664.121 245.373 664.581 256.983C662.251 245.453 660.021 233.513 662.041 221.773Z"></path>
<path fill="#5B116D" d="M663 221.691C667.73 230.981 671.61 240.621 674.61 250.611C669.87 241.321 666 231.671 663 221.691Z"></path>
<path fill="#5B116D" d="M648.75 213.444C647.53 212.064 640.02 216.544 638.36 217.344C628.37 222.984 618.71 229.354 610.42 237.324C617.65 228.244 627.59 221.594 637.88 216.404C639.63 215.604 647.54 211.764 648.76 213.444H648.75Z"></path>
<path fill="#5B116D" d="M647.69 212.852C636.51 216.492 625.8 222.472 614.85 226.652C625.13 220.712 635.82 214.752 647.69 212.852Z"></path>
<path fill="#5B116D" d="M648.061 213.73C643.571 216.56 638.591 218.55 634.671 222.16C630.691 225.65 627.471 229.9 624.121 234.01C627.831 226.9 633.111 220.09 640.601 216.72C643.051 215.57 645.571 214.72 648.061 213.73Z"></path>
<path fill="#5B116D" d="M665.941 219.211C664.521 219.381 667.141 222.821 667.561 223.401C674.981 232.811 684.841 239.751 694.841 246.261C683.981 241.281 673.651 233.881 667.021 223.771C666.621 223.071 664.351 219.231 665.951 219.211H665.941Z"></path>
<path fill="#5B116D" d="M665.791 220.262C671.971 230.492 679.551 239.442 688.291 247.572C678.381 240.972 670.261 231.332 665.791 220.262Z"></path>
<path stroke-miterlimit="10" stroke-width="1.33" stroke="black" fill="#428222" d="M672.48 199.512C667.25 225.212 680.29 233.512 681.22 235.732C681.22 235.732 674.5 225.632 668.3 229.032C665.77 230.422 659.17 249.832 659.17 249.832C659.17 249.832 658.44 222.972 654.51 223.272C650.58 223.562 642.94 238.342 642.94 238.342C642.94 238.342 644.33 218.702 640.78 217.442C637.24 216.182 621.92 221.872 621.92 221.872C621.92 221.872 639.48 201.312 648.32 194.642C654.29 190.132 661.39 184.282 668.12 188.052C671.79 190.102 673.32 195.402 672.48 199.522V199.512Z"></path>
<path stroke-miterlimit="10" stroke-width="1.44" stroke="black" fill="#428222" d="M633.621 87.5508C647.441 75.5108 663.421 65.9708 680.571 59.5108C684.701 57.9508 688.961 56.5608 693.371 56.2708C697.781 55.9808 702.401 56.8808 705.931 59.5408C708.141 61.2008 710.291 63.6508 713.041 63.3608C709.111 76.6508 700.411 87.4808 687.311 92.5308C669.931 99.2308 649.471 97.3308 633.621 87.5508Z"></path>
<path fill="#428222" d="M712.602 62.9297C710.442 67.1397 706.702 70.3297 702.732 72.9097C687.942 82.5197 669.712 84.7397 652.182 86.7197"></path>
<path fill="black" d="M712.601 62.9297C710.261 68.1197 705.551 71.8097 700.811 74.7297C688.751 82.1797 674.451 84.7197 660.561 86.0897C657.771 86.3297 654.981 86.5697 652.191 86.7297L660.471 85.3997C676.851 82.9097 703.141 77.8297 712.601 62.9397V62.9297Z"></path>
<path fill="#964318" d="M863.621 120.543C863.621 120.543 794.301 181.483 811.251 205.453C828.201 229.413 855.701 167.133 855.701 167.133C855.701 167.133 851.691 232.403 868.231 230.323C884.771 228.243 880.391 181.573 880.391 181.573C880.391 181.573 907.201 231.863 921.761 218.393C936.321 204.923 906.951 167.873 906.951 167.873C906.951 167.873 937.461 203.263 953.041 188.143C968.621 173.023 920.431 150.283 920.431 150.283C920.431 150.283 959.461 162.303 959.851 143.943C960.231 125.583 863.621 120.543 863.621 120.543Z"></path>
<mask height="111" width="152" y="120" x="808" maskUnits="userSpaceOnUse" style="mask-type:luminance" id="mask2_4023_1258">
<path fill="white" d="M863.621 120.543C863.621 120.543 794.301 181.483 811.251 205.453C828.201 229.413 855.701 167.133 855.701 167.133C855.701 167.133 851.691 232.403 868.231 230.323C884.771 228.243 880.391 181.573 880.391 181.573C880.391 181.573 907.201 231.863 921.761 218.393C936.321 204.923 906.951 167.873 906.951 167.873C906.951 167.873 937.461 203.263 953.041 188.143C968.621 173.023 920.431 150.283 920.431 150.283C920.431 150.283 959.461 162.303 959.851 143.943C960.231 125.583 863.621 120.543 863.621 120.543Z"></path>
</mask>
<g mask="url(#mask2_4023_1258)">
<g opacity="0.4" style="mix-blend-mode:overlay">
<path fill="white" d="M799.542 198.594C799.542 198.594 808.932 210.014 826.812 199.014C844.592 188.074 855.692 167.134 855.692 167.134C855.692 167.134 838.842 217.104 859.052 221.934C875.142 225.784 880.382 181.574 880.382 181.574C880.382 181.574 897.562 209.854 908.242 210.994C924.872 212.774 919.422 191.724 919.422 191.724C919.422 191.724 915.242 176.134 915.552 176.604C915.862 177.074 933.512 186.934 941.782 186.964C958.282 187.014 952.252 175.464 947.492 171.734C941.322 166.904 904.672 143.744 904.672 143.744C904.672 143.744 945.922 155.054 952.852 147.814C962.962 137.234 930.372 125.344 930.372 125.344C930.372 125.344 973.972 128.324 975.132 159.454C976.302 190.594 1002.94 258.604 938.762 251.374C874.572 244.144 795.782 210.684 799.542 198.594Z"></path>
</g>
</g>
<path stroke-miterlimit="10" stroke-width="2.15" stroke="black" d="M863.621 120.543C863.621 120.543 794.301 181.483 811.251 205.453C828.201 229.413 855.701 167.133 855.701 167.133C855.701 167.133 851.691 232.403 868.231 230.323C884.771 228.243 880.391 181.573 880.391 181.573C880.391 181.573 907.201 231.863 921.761 218.393C936.321 204.923 906.951 167.873 906.951 167.873C906.951 167.873 937.461 203.263 953.041 188.143C968.621 173.023 920.431 150.283 920.431 150.283C920.431 150.283 959.461 162.303 959.851 143.943C960.231 125.583 863.621 120.543 863.621 120.543Z"></path>
<path fill="#042B3B" d="M920.02 164.571C904.99 154.571 890.4 143.941 875.93 133.151C871.09 129.581 866.34 125.891 861.55 122.271L864.66 119.461C875.15 136.391 885.61 153.951 895.39 171.341C898.64 177.201 901.91 183.061 904.99 189.031C901.05 183.591 897.29 178.041 893.52 172.491C882.4 155.921 871.43 138.691 861.04 121.691C859.79 119.701 862.31 117.431 864.16 118.881C868.89 122.591 873.68 126.231 878.36 129.991C892.5 141.211 906.51 152.591 920.03 164.561L920.02 164.571Z"></path>
<path fill="#042B3B" d="M868.551 199.663C865.741 180.213 863.861 160.083 862.201 140.503C861.671 133.913 861.161 127.333 860.711 120.733L864.741 121.573C853.991 141.883 842.981 162.053 830.951 181.633C840.151 160.573 850.421 140.003 860.951 119.583C861.891 117.683 864.891 118.313 864.981 120.423C865.491 127.013 865.931 133.603 866.351 140.193C867.511 159.803 868.541 179.993 868.551 199.653V199.663Z"></path>
<path fill="#042B3B" d="M945.54 143.742C918.64 136.972 889.28 129.212 862.43 122.042C861.9 121.902 861.52 121.502 861.38 121.012C845 70.3322 825.89 20.3722 802.87 -27.6778C782.84 -68.3978 749.17 -132.678 706.4 -151.258C731.71 -141.568 750.17 -119.968 765.94 -98.7578C789.43 -66.0378 807.34 -29.8178 823.37 6.99219C839.14 43.9122 852.88 81.6522 864.3 120.152L863.25 119.122C889.92 126.912 919.02 135.592 945.54 143.752V143.742Z"></path>
<path fill="#964318" d="M854.96 56.4419C854.96 56.4419 902.67 98.3919 891.01 114.882C879.35 131.382 860.42 88.5019 860.42 88.5019C860.42 88.5019 863.18 133.432 851.79 131.992C840.4 130.562 843.42 98.4319 843.42 98.4319C843.42 98.4319 824.96 133.052 814.94 123.782C804.92 114.512 825.13 89.0119 825.13 89.0119C825.13 89.0119 804.13 113.372 793.4 102.962C782.67 92.5519 815.84 76.9019 815.84 76.9019C815.84 76.9019 788.97 85.1719 788.71 72.5319C788.45 59.8919 854.95 56.4219 854.95 56.4219L854.96 56.4419Z"></path>
<mask height="77" width="105" y="56" x="788" maskUnits="userSpaceOnUse" style="mask-type:luminance" id="mask3_4023_1258">
<path fill="white" d="M854.96 56.4419C854.96 56.4419 902.67 98.3919 891.01 114.882C879.35 131.382 860.42 88.5019 860.42 88.5019C860.42 88.5019 863.18 133.432 851.79 131.992C840.4 130.562 843.42 98.4319 843.42 98.4319C843.42 98.4319 824.96 133.052 814.94 123.782C804.92 114.512 825.13 89.0119 825.13 89.0119C825.13 89.0119 804.13 113.372 793.4 102.962C782.67 92.5519 815.84 76.9019 815.84 76.9019C815.84 76.9019 788.97 85.1719 788.71 72.5319C788.45 59.8919 854.95 56.4219 854.95 56.4219L854.96 56.4419Z"></path>
</mask>
<g mask="url(#mask3_4023_1258)">
<g opacity="0.4" style="mix-blend-mode:overlay">
<path fill="white" d="M899.059 110.162C899.059 110.162 892.599 118.022 880.289 110.452C867.979 102.882 860.409 88.5022 860.409 88.5022C860.409 88.5022 872.009 122.892 858.099 126.222C847.019 128.872 843.419 98.4422 843.419 98.4422C843.419 98.4422 831.589 117.912 824.239 118.692C812.789 119.912 816.539 105.432 816.539 105.432C816.539 105.432 819.419 94.7022 819.199 95.0222C818.979 95.3422 806.839 102.132 801.149 102.152C789.789 102.182 793.939 94.2322 797.219 91.6722C801.469 88.3522 826.699 72.4122 826.699 72.4122C826.699 72.4122 798.299 80.1922 793.539 75.2122C786.579 67.9322 809.019 59.7422 809.019 59.7422C809.019 59.7422 779.009 61.7922 778.209 83.2222C777.409 104.652 759.059 151.472 803.249 146.492C847.429 141.522 901.669 118.482 899.079 110.162H899.059Z"></path>
</g>
</g>
<path stroke-miterlimit="10" stroke-width="2.26" stroke="black" d="M854.96 56.4419C854.96 56.4419 902.67 98.3919 891.01 114.882C879.35 131.382 860.42 88.5019 860.42 88.5019C860.42 88.5019 863.18 133.432 851.79 131.992C840.4 130.562 843.42 98.4319 843.42 98.4319C843.42 98.4319 824.96 133.052 814.94 123.782C804.92 114.512 825.13 89.0119 825.13 89.0119C825.13 89.0119 804.13 113.372 793.4 102.962C782.67 92.5519 815.84 76.9019 815.84 76.9019C815.84 76.9019 788.97 85.1719 788.71 72.5319C788.45 59.8919 854.95 56.4219 854.95 56.4219L854.96 56.4419Z"></path>
<path fill="#042B3B" d="M816.141 86.7426C828.561 75.7726 841.521 65.4526 854.601 55.3026C855.851 54.2926 857.621 55.8926 856.741 57.2326C851.931 65.1026 847.021 72.9026 842.001 80.6526C837.101 88.1726 831.711 96.3226 826.481 103.583C830.601 95.6526 835.461 87.1526 839.971 79.4026C844.631 71.4426 849.381 63.5426 854.241 55.7026L856.381 57.6326C843.211 67.6726 829.911 77.5526 816.131 86.7526L816.141 86.7426Z"></path>
<path fill="#042B3B" d="M851.561 110.901C851.571 97.3713 852.271 83.4713 853.081 69.9713C853.401 65.4313 853.651 60.8913 854.031 56.3613C854.101 54.9113 856.161 54.4813 856.791 55.7913C864.051 69.8413 871.121 83.9913 877.451 98.4913C869.161 85.0113 861.581 71.1213 854.201 57.1413L856.961 56.5713C856.681 61.1113 856.281 65.6413 855.941 70.1813C854.811 83.6613 853.501 97.5113 851.571 110.901H851.561Z"></path>
<path fill="#042B3B" d="M798.57 72.4119C812.39 67.5419 826.82 63.1819 840.88 59.0819C845.62 57.7419 850.34 56.3419 855.1 55.0619L854.04 56.3019C856.07 38.9319 870.1 24.0019 886.92 19.9219C879.08 22.9819 872.1 28.0019 866.75 34.4319C861.51 40.7519 857.85 48.4719 856.95 56.6419C856.88 57.2519 856.45 57.7319 855.89 57.8819C836.99 63.2119 817.79 68.3319 798.57 72.4219V72.4119Z"></path>
</g>
<defs>
<linearGradient gradientUnits="userSpaceOnUse" y2="-55.8479" x2="765.56" y1="172.202" x1="762.14" id="paint0_linear_4023_1258">
<stop stop-color="#21562C"></stop>
<stop stop-color="#1C4921" offset="0.27"></stop>
<stop stop-color="#0F3013" offset="0.99"></stop>
</linearGradient>
<linearGradient gradientUnits="userSpaceOnUse" y2="182.562" x2="986.89" y1="-124.228" x1="852.19" id="paint1_linear_4023_1258">
<stop stop-color="#154814"></stop>
<stop stop-color="#428222" offset="0.99"></stop>
</linearGradient>
<linearGradient gradientUnits="userSpaceOnUse" y2="251.015" x2="697.44" y1="254.094" x1="655.202" id="paint2_linear_4023_1258">
<stop stop-color="#881D94" offset="0.17"></stop>
<stop stop-color="#632872" offset="0.74"></stop>
</linearGradient>
<linearGradient gradientUnits="userSpaceOnUse" y2="246.179" x2="649.07" y1="249.65" x1="601.456" id="paint3_linear_4023_1258">
<stop stop-color="#881D94" offset="0.17"></stop>
<stop stop-color="#632872" offset="0.74"></stop>
</linearGradient>
<linearGradient gradientUnits="userSpaceOnUse" y2="259.836" x2="667.762" y1="261.992" x1="638.191" id="paint4_linear_4023_1258">
<stop stop-color="#881D94" offset="0.17"></stop>
<stop stop-color="#632872" offset="0.74"></stop>
</linearGradient>
<linearGradient gradientUnits="userSpaceOnUse" y2="214.371" x2="640.455" y1="219.689" x1="567.509" id="paint5_linear_4023_1258">
<stop stop-color="#881D94" offset="0.17"></stop>
<stop stop-color="#632872" offset="0.74"></stop>
</linearGradient>
<linearGradient gradientUnits="userSpaceOnUse" y2="242.332" x2="720.65" y1="246.157" x1="668.19" id="paint6_linear_4023_1258">
<stop stop-color="#881D94" offset="0.17"></stop>
<stop stop-color="#632872" offset="0.74"></stop>
</linearGradient>
<linearGradient gradientUnits="userSpaceOnUse" y2="251.076" x2="655.459" y1="247.128" x1="623.673" id="paint7_linear_4023_1258">
<stop stop-color="#9024A0" offset="0.17"></stop>
<stop stop-color="#7D268C" offset="1"></stop>
</linearGradient>
<linearGradient gradientUnits="userSpaceOnUse" y2="241.018" x2="632.02" y1="220.076" x1="592.767" id="paint8_linear_4023_1258">
<stop stop-color="#9024A0" offset="0.17"></stop>
<stop stop-color="#7D268C" offset="1"></stop>
</linearGradient>
<linearGradient gradientUnits="userSpaceOnUse" y2="255.165" x2="678.48" y1="261.745" x1="655.037" id="paint9_linear_4023_1258">
<stop stop-color="#9024A0" offset="0.17"></stop>
<stop stop-color="#7D268C" offset="1"></stop>
</linearGradient>
<clipPath id="clip0_4023_1258">
<rect fill="white" height="1280" width="1920"></rect>
</clipPath>
</defs>
</svg>
